<svg xmlns="http://www.w3.org/2000/svg" xmlns:xlink="http://www.w3.org/1999/xlink" version="1.1" x="0px" y="0px" viewBox="0 0 32 40" enable-background="new 0 0 32 32" xml:space="preserve"><g><path d="M23.8173828,28.4243164l-1.6875-2.3959961C21.7768555,25.3916016,21.1152344,25,20.3818359,25H19v1   c0,1.1030273-0.8969727,2-2,2h-2c-1.1030273,0-2-0.8969727-2-2v-1h-1.3818359   c-0.7333984,0-1.3950195,0.3916016-1.7480469,1.0283203l-1.6875,2.3959961   c-0.215332,0.3051758-0.2421875,0.7045898-0.0703125,1.0361328S8.6264648,30,9,30h14   c0.3735352,0,0.7158203-0.2080078,0.8876953-0.5395508S24.0327148,28.7294922,23.8173828,28.4243164z"/><path d="M17,27h-2c-0.5522852,0-1-0.4477158-1-1v-3h4v3C18,26.5522842,17.5522842,27,17,27z"/><path d="M26,2H6C3.7944336,2,2,3.7944336,2,6v12c0,2.2055664,1.7944336,4,4,4h20c2.2055664,0,4-1.7944336,4-4V6   C30,3.7944336,28.2055664,2,26,2z M28,19c0,0.5522461-0.4476929,1-1,1H5c-0.5523071,0-1-0.4477539-1-1V8h24V19z M28,7H4V5   c0-0.5523071,0.4476929-1,1-1h22c0.5523071,0,1,0.4476929,1,1V7z"/><rect x="5" y="9" width="5" height="6"/><rect x="11" y="9" width="10" height="4"/><rect x="22" y="9" width="5" height="6"/><path d="M9.5,17h-4C5.2236328,17,5,16.7763672,5,16.5S5.2236328,16,5.5,16h4c0.2763672,0,0.5,0.2236328,0.5,0.5   S9.7763672,17,9.5,17z"/><path d="M9.5,19h-4C5.2236328,19,5,18.7763672,5,18.5S5.2236328,18,5.5,18h4c0.2763672,0,0.5,0.2236328,0.5,0.5   S9.7763672,19,9.5,19z"/><path d="M26.5,17h-4c-0.2763672,0-0.5-0.2236328-0.5-0.5s0.2236328-0.5,0.5-0.5h4c0.2763672,0,0.5,0.2236328,0.5,0.5   S26.7763672,17,26.5,17z"/><path d="M26.5,19h-4c-0.2763672,0-0.5-0.2236328-0.5-0.5s0.2236328-0.5,0.5-0.5h4c0.2763672,0,0.5,0.2236328,0.5,0.5   S26.7763672,19,26.5,19z"/><path d="M20.5,17h-9c-0.2763672,0-0.5-0.2236328-0.5-0.5s0.2236328-0.5,0.5-0.5h9c0.2763672,0,0.5,0.2236328,0.5,0.5   S20.7763672,17,20.5,17z"/><path d="M20.5,19h-9c-0.2763672,0-0.5-0.2236328-0.5-0.5s0.2236328-0.5,0.5-0.5h9c0.2763672,0,0.5,0.2236328,0.5,0.5   S20.7763672,19,20.5,19z"/><circle cx="5.5" cy="5.5" r="0.5"/><circle cx="7.5" cy="5.5" r="0.5"/><circle cx="9.5" cy="5.5" r="0.5"/><circle cx="14.5" cy="14.5" r="0.5"/><circle cx="17.5" cy="14.5" r="0.5"/></g><text x="0" y="47" fill="#000000" font-size="5px" font-weight="bold" font-family="'Helvetica Neue', Helvetica, Arial-Unicode, Arial, Sans-serif">Created by M. Oki Orlando</text><text x="0" y="52" fill="#000000" font-size="5px" font-weight="bold" font-family="'Helvetica Neue', Helvetica, Arial-Unicode, Arial, Sans-serif">from the Noun Project</text></svg>