<svg xmlns="http://www.w3.org/2000/svg" viewBox="0 0 64 80" x="0px" y="0px"><g><path d="M57,5H7a5.006,5.006,0,0,0-5,5V44a5.006,5.006,0,0,0,5,5H26.382l-2.829,5.658A3,3,0,0,0,26.236,59H37.764a3,3,0,0,0,2.683-4.342L37.618,49H57a5.006,5.006,0,0,0,5-5V10A5.006,5.006,0,0,0,57,5ZM38.658,55.553A1,1,0,0,1,37.764,57H26.236a1,1,0,0,1-.894-1.447L28.618,49h6.764ZM60,44a3,3,0,0,1-3,3H7a3,3,0,0,1-3-3V10A3,3,0,0,1,7,7H57a3,3,0,0,1,3,3Z"/><path d="M9,21H29a1,1,0,0,0,1-1V10a1,1,0,0,0-1-1H9a1,1,0,0,0-1,1V20A1,1,0,0,0,9,21Zm1-10H28v8H10Z"/><path d="M9,25H20a1,1,0,0,0,0-2H9a1,1,0,0,0,0,2Z"/><path d="M56,15.486V10a1,1,0,0,0-1-1H35a1,1,0,0,0-1,1V20a1,1,0,0,0,1,1H46.586l-2,2H35a1,1,0,0,0,0,2h7.586l-4,4H9a1,1,0,0,0-1,1V40a1,1,0,0,0,1,1H28.946l-.666,2H23a1,1,0,0,0,0,2h6a1.014,1.014,0,0,0,.316-.051l6-2c.013,0,.024-.013.036-.018s.041-.02.062-.03a.965.965,0,0,0,.261-.173c.01-.009.023-.012.032-.021L37.414,41H55a1,1,0,0,0,1-1V30a1,1,0,0,0-1-1H49.414l7.465-7.465A3.807,3.807,0,0,0,56,15.486ZM36,19V11H54v4.017a3.786,3.786,0,0,0-2.535,1.105L48.586,19ZM35,40.586,32.414,38,51,19.414,53.586,22ZM10,39V31H36.586l-6.293,6.293c-.01.01-.013.023-.022.033a.976.976,0,0,0-.168.251c-.011.023-.023.043-.032.067s-.015.025-.019.04L29.613,39Zm20.581,3.419.856-2.568,1.711,1.712ZM54,31v8H39.414l8-8Zm1.465-10.878L55,20.586,52.414,18l.465-.465A1.829,1.829,0,0,1,56,18.829,1.819,1.819,0,0,1,55.465,20.122Z"/><path d="M29,23H24a1,1,0,0,0,0,2h5a1,1,0,0,0,0-2Z"/><path d="M19,43H9a1,1,0,0,0,0,2H19a1,1,0,0,0,0-2Z"/></g><text x="0" y="79" fill="#000000" font-size="5px" font-weight="bold" font-family="'Helvetica Neue', Helvetica, Arial-Unicode, Arial, Sans-serif">Created by mynamepong</text><text x="0" y="84" fill="#000000" font-size="5px" font-weight="bold" font-family="'Helvetica Neue', Helvetica, Arial-Unicode, Arial, Sans-serif">from the Noun Project</text></svg>